# xmcd
#
# Track frame offsets:
#       150
#       13654
#       26192
#       39067
#       52112
#       64475
#       77288
#       90078
#       102993
#       115603
#       128178
#       140624
#       153358
#       165896
#       179081
#       191787
#       204855
#       217902
#       230494
#       243004
#       255409
#       267301
#       279356
#       291256
#       304198
#       316088
#
# Disc length: 4379 seconds
#
# Revision: 0
# Processed by: cddbd v1.4PL0 Copyright (c) Steve Scherf et al.
# Submitted via: WhereIsIt 3.26
#
DISCID=5b11191a
DTITLE=Hank Williams - Complete cd 1
DYEAR=1900
DGENRE=
TTITLE0=calling you
TTITLE1=never again
TTITLE2=wealth won't save your soul
TTITLE3=when god comes and gathers his jewels
TTITLE4=my love for you
TTITLE5=I don't care
TTITLE6=honky tonkin
TTITLE7=pam american
TTITLE8=move it on over
TTITLE9=I saw the light
TTITLE10=I heard you crying
TTITLE11=six more miles
TTITLE12=fly trouble
TTITLE13=on the banks of the old pontchartrain
TTITLE14=rootie tootie
TTITLE15=I can't get you off my mind
TTITLE16=I'm a long gone daddy
TTITLE17=honky tonkin
TTITLE18=my sweet love ain't around
TTITLE19=the blues come around
TTITLE20=a mansion on the hill
TTITLE21=I'll be a bachelor till I die
TTITLE22=lost on the river
TTITLE23=there 'll be no teardrops tonight
TTITLE24=I heard my mother praying for me
TTITLE25=lovesick blues
EXTD=
EXTT0=
EXTT1=
EXTT2=
EXTT3=
EXTT4=
EXTT5=
EXTT6=
EXTT7=
EXTT8=
EXTT9=
EXTT10=
EXTT11=
EXTT12=
EXTT13=
EXTT14=
EXTT15=
EXTT16=
EXTT17=
EXTT18=
EXTT19=
EXTT20=
EXTT21=
EXTT22=
EXTT23=
EXTT24=
EXTT25=
PLAYORDER=
